#define icon_48x48_width 48
#define icon_48x48_height 48
static unsigned char icon_48x48_bits[] = {
   0x00, 0x00, 0x00, 0x00, 0x00, 0x00, 0x00, 0x00, 0x00, 0x00, 0x00, 0x00,
   0x00, 0x00, 0x00, 0x00, 0x00, 0x00, 0x10, 0x00, 0x01, 0x10, 0x00, 0x09,
   0x04, 0x00, 0x00, 0x00, 0x00, 0x00, 0x20, 0x00, 0x00, 0x20, 0x00, 0x10,
   0x00, 0x00, 0x01, 0x00, 0x00, 0x02, 0x00, 0x00, 0x00, 0x00, 0x00, 0x00,
   0x44, 0x00, 0x02, 0x20, 0x00, 0x10, 0x00, 0x00, 0x00, 0x04, 0x00, 0x01,
   0x00, 0x00, 0x08, 0x08, 0x00, 0x00, 0x12, 0x00, 0x08, 0x38, 0x00, 0x10,
   0x00, 0x40, 0x00, 0x10, 0x80, 0x04, 0x40, 0x00, 0x00, 0x42, 0x00, 0x00,
   0x00, 0x00, 0xc0, 0x0f, 0x00, 0x20, 0x08, 0x00, 0xf0, 0x3f, 0x00, 0x01,
   0x40, 0x00, 0xf0, 0x1f, 0x00, 0x00, 0x01, 0x00, 0xf4, 0x7f, 0x00, 0x08,
   0x08, 0x00, 0xe5, 0xff, 0x00, 0x01, 0x00, 0x00, 0xe0, 0x3f, 0x00, 0x10,
   0x10, 0x00, 0x08, 0x38, 0x00, 0x00, 0x40, 0x00, 0x00, 0x78, 0x00, 0x01,
   0x00, 0x00, 0x08, 0x30, 0x00, 0x08, 0x04, 0x00, 0x00, 0x38, 0x00, 0x10,
   0x20, 0x00, 0x08, 0x78, 0x00, 0x01, 0x00, 0x00, 0x00, 0x38, 0x00, 0x00,
   0x00, 0x00, 0xc0, 0x7f, 0x00, 0x10, 0x48, 0x00, 0xe8, 0x3f, 0x80, 0x00,
   0x00, 0x00, 0xc0, 0x37, 0x00, 0x00, 0x00, 0x00, 0xe0, 0x27, 0x00, 0x12,
   0x44, 0x00, 0xc0, 0x07, 0x00, 0x00, 0x00, 0x00, 0xe0, 0x07, 0x00, 0x00,
   0x00, 0x00, 0xe0, 0x07, 0x00, 0x11, 0x24, 0x00, 0xe0, 0x07, 0x00, 0x00,
   0x00, 0x00, 0xc0, 0x27, 0x00, 0x00, 0x00, 0x00, 0x20, 0x07, 0x00, 0x12,
   0x88, 0x00, 0xe8, 0x3f, 0x80, 0x00, 0x00, 0x00, 0xbc, 0x3e, 0x00, 0x00,
   0x10, 0x00, 0x00, 0x0c, 0x00, 0x04, 0x00, 0x00, 0x08, 0x80, 0x00, 0x10,
   0x40, 0x00, 0x00, 0x10, 0x00, 0x00, 0x04, 0x40, 0x00, 0x00, 0x80, 0x00,
   0x00, 0x00, 0x04, 0x00, 0x00, 0x24, 0x40, 0x00, 0x00, 0x20, 0x00, 0x00,
   0x08, 0x00, 0x00, 0x00, 0x00, 0x00, 0x00, 0x00, 0x01, 0x00, 0x40, 0x04,
   0x20, 0x00, 0x00, 0x10, 0x00, 0x20, 0x02, 0x00, 0x02, 0x40, 0x80, 0x00 };
